Format : AVI
Format/Info : Audio Video Interleave
File size : 704 MiB
Duration : 2h 56mn
Overall bit rate : 559 Kbps
Writing application : MEncoder SVN-r29352(20090610-gcc4.3.3)
Writing library : MPlayer

Video
ID : 0
Format : MPEG-4 Visual
Format profile : AdvancedSimple@L5
Format settings, BVOP : Yes
Format settings, QPel : No
Format settings, GMC : No warppoints
Format settings, Matrix : Default (H.263)
Codec ID : XVID
Codec ID/Hint : XviD
Duration : 1h 28mn
Bit rate : 1 010 Kbps
Width : 640 pixels
Height : 360 pixels
Display aspect ratio : 16:9
Frame rate : 25.000 fps
Resolution : 24 bits
Colorimetry : 4:2:0
Scan type : Progressive
Bits/(Pixel*Frame) : 0.175
Stream size : 636 MiB (90%)
Writing library : XviD 1.2.1 (UTC 2008-12-04)

Audio
ID : 1
Format : MPEG Audio
Format version : Version 2
Format profile : Layer 3
Codec ID : 55
Codec ID/Hint : MP3
Duration : 2h 56mn
Bit rate mode : Constant
Bit rate : 96.0 Kbps
Channel(s) : 2 channels
Sampling rate : 22.05 KHz
Resolution : 16 bits
Video delay : 40ms
Stream size : 60.4 MiB (9%)
Alignment : Aligned on interleaves
Interleave, duration : 26 ms (0.65 video frame)
Interleave, preload duration : 522 ms

Starring
Damian Walshe-Howling
Zoe Naylor
Gyton Grantley
Adrienne Pickering

The Reef is a 2010 Australian film set in the seas of Australia. The film was written and directed by Andrew Traucki. It is Traucki's second feature film, which is about of a group of friends who capsize while sailing to Indonesia. The group decides that their best bet for survival is to swim to a nearby island where they find themselves stalked by a large shark
 
http://www.imdb.com/title/tt1320291/

screens 
http://img813.imageshack.us/img813/1144/reefxvidviceavisnapshot.jpg 
http://img140.imageshack.us/img140/1144/reefxvidviceavisnapshot.jpg 
http://img13.imageshack.us/img13/1144/reefxvidviceavisnapshot.jpg 
http://img844.imageshack.us/img844/1144/reefxvidviceavisnapshot.jpg